<svg xmlns="http://www.w3.org/2000/svg" viewBox="0 0 1200 630" width="1200" height="630" role="img" aria-label="FunMax Games cover">
  <defs>
    <linearGradient id="bg" x1="0" y1="0" x2="1" y2="1">
      <stop offset="0" stop-color="#1d216f"/><stop offset="1" stop-color="#12143f"/>
    </linearGradient>
    <linearGradient id="logo" x1="0" y1="0" x2="1" y2="1">
      <stop offset="0" stop-color="#4AB2FF"/><stop offset="1" stop-color="#247BFF"/>
    </linearGradient>
  </defs>
  <rect width="1200" height="630" fill="url(#bg)"/>
  <g opacity=".13" fill="#fff">
    <circle cx="1040" cy="120" r="150"/><circle cx="150" cy="540" r="110"/>
  </g>
  <g transform="translate(90 232)">
    <rect width="96" height="96" rx="24" fill="url(#logo)"/>
    <path d="M28 52l20-20 20 20v26a6 6 0 0 1-6 6H34a6 6 0 0 1-6-6z" fill="#fff"/>
  </g>
  <text x="220" y="292" font-family="Helvetica,Arial,sans-serif" font-size="72" font-weight="700" fill="#fff">FunMax Games</text>
  <text x="220" y="352" font-family="Helvetica,Arial,sans-serif" font-size="34" fill="#a8b0e8">6 free HTML5 games · no download · plays instantly</text>
  <g transform="translate(220 404)">
    <g font-family="Helvetica,Arial,sans-serif" font-size="24" fill="#cbd5ff">
      <rect width="150" height="52" rx="26" fill="#ffffff" fill-opacity=".1"/><text x="75" y="34" text-anchor="middle">2048</text>
      <g transform="translate(166 0)"><rect width="150" height="52" rx="26" fill="#ffffff" fill-opacity=".1"/><text x="75" y="34" text-anchor="middle">Snake</text></g>
      <g transform="translate(332 0)"><rect width="176" height="52" rx="26" fill="#ffffff" fill-opacity=".1"/><text x="88" y="34" text-anchor="middle">Breakout</text></g>
      <g transform="translate(524 0)"><rect width="176" height="52" rx="26" fill="#ffffff" fill-opacity=".1"/><text x="88" y="34" text-anchor="middle">Memory</text></g>
    </g>
  </g>
</svg>
